<svg xmlns="http://www.w3.org/2000/svg" width="50" height="40" viewBox="0 0 50 40">
  <path id="ic_group_24px" d="M35.091,22.143c3.773,0,6.8-3.829,6.8-8.571S38.864,5,35.091,5s-6.818,3.829-6.818,8.571S31.318,22.143,35.091,22.143Zm-18.182,0c3.773,0,6.8-3.829,6.8-8.571S20.682,5,16.909,5s-6.818,3.829-6.818,8.571S13.136,22.143,16.909,22.143Zm0,5.714C11.614,27.857,1,31.2,1,37.857V45H32.818V37.857C32.818,31.2,22.2,27.857,16.909,27.857Zm18.182,0a21.17,21.17,0,0,0-2.2.143,12.951,12.951,0,0,1,4.477,9.857V45H51V37.857C51,31.2,40.386,27.857,35.091,27.857Z" transform="translate(-1 -5)" fill="#fff"/>
</svg>
