<svg xmlns="http://www.w3.org/2000/svg" width="50" height="50" viewBox="0 0 50 50">
  <g id="ic_spa_24px" transform="translate(-2 -2)">
    <path id="Path_102" data-name="Path 102" d="M16.136,12A91.165,91.165,0,0,0,5.02,10.39,91.165,91.165,0,0,1,16.136,12ZM48.98,10.39a89.327,89.327,0,0,0-11.242,1.64A89.328,89.328,0,0,1,48.98,10.39Z" transform="translate(0 13.709)" fill="#fff"/>
    <path id="Path_103" data-name="Path 103" d="M35.725,21.075A29.48,29.48,0,0,0,27.15,2a30.469,30.469,0,0,0-8.875,19.075A34.667,34.667,0,0,1,27,27.65a35.9,35.9,0,0,1,8.725-6.575ZM19.475,27.7c-.35-.25-.75-.475-1.125-.725C18.725,27.25,19.125,27.45,19.475,27.7Zm16.05-.625c-.325.225-.675.4-1,.65C34.85,27.475,35.2,27.3,35.525,27.075ZM27,35.625A29.864,29.864,0,0,0,2,22,30.435,30.435,0,0,0,22.075,50.725,26.872,26.872,0,0,0,27,52a32.351,32.351,0,0,0,4.925-1.275A30.435,30.435,0,0,0,52,22,29.864,29.864,0,0,0,27,35.625Z" fill="#fff"/>
  </g>
</svg>
