<svg xmlns="http://www.w3.org/2000/svg" width="50" height="50" viewBox="0 0 50 50">
  <path id="ic_share_24px" d="M44.667,37.341a8.578,8.578,0,0,0-5.444,1.933L19.417,28.857a7.47,7.47,0,0,0,.25-1.757,7.47,7.47,0,0,0-.25-1.757L39,15.027a8.792,8.792,0,0,0,5.667,2.033C49.278,17.06,53,13.7,53,9.53S49.278,2,44.667,2s-8.333,3.363-8.333,7.53a7.47,7.47,0,0,0,.25,1.757L17,21.6a8.792,8.792,0,0,0-5.667-2.033C6.722,19.57,3,22.934,3,27.1s3.722,7.53,8.333,7.53A8.792,8.792,0,0,0,17,32.6L36.778,43.039a6.436,6.436,0,0,0-.222,1.632c0,4.041,3.639,7.329,8.111,7.329s8.111-3.288,8.111-7.329-3.639-7.329-8.111-7.329Z" transform="translate(-3 -2)" fill="#fff"/>
</svg>
